{
	"asset":{
		"generator":"Khronos glTF Blender I/O v5.1.18",
		"version":"2.0"
	},
	"scene":0,
	"scenes":[
		{
			"name":"Scene",
			"nodes":[
				41
			]
		}
	],
	"nodes":[
		{
			"name":"Lip_TR",
			"rotation":[
				-0.003001269418746233,
				0.0638170838356018,
				0.046881359070539474,
				0.9968553185462952
			],
			"scale":[
				0.9999999403953552,
				1,
				1
			],
			"translation":[
				-0.1793479174375534,
				1.3139638900756836,
				0.39941224455833435
			]
		},
		{
			"name":"Lip_BR",
			"rotation":[
				0.0019428959349170327,
				-0.041313134133815765,
				0.04693640395998955,
				0.9980412721633911
			],
			"scale":[
				1,
				0.9999999403953552,
				0.9999999403953552
			],
			"translation":[
				0.10100015252828598,
				1.340390682220459,
				0.39941251277923584
			]
		},
		{
			"name":"Lip_TL",
			"rotation":[
				-0.0018985990900546312,
				0.04037126526236534,
				0.04693816229701042,
				0.9980798363685608
			],
			"translation":[
				-0.17934711277484894,
				1.3139638900756836,
				-0.399412602186203
			]
		},
		{
			"name":"Lip_BL",
			"rotation":[
				-0.001942840637639165,
				0.041312433779239655,
				0.046935874968767166,
				0.9980413913726807
			],
			"scale":[
				1,
				1,
				0.9999999403953552
			],
			"translation":[
				0.10100094228982925,
				1.340390682220459,
				-0.3994123339653015
			]
		},
		{
			"name":"Lip_BR0",
			"rotation":[
				0.0014108071336522698,
				-0.030000165104866028,
				0.04695480316877365,
				0.998445451259613
			],
			"translation":[
				0.13649900257587433,
				1.343737006187439,
				0.16772980988025665
			]
		},
		{
			"name":"Lip_BL0",
			"rotation":[
				0.028848586603999138,
				0.0057988883927464485,
				0.032775163650512695,
				0.9990295171737671
			],
			"scale":[
				0.9999999403953552,
				1.0000001192092896,
				1
			],
			"translation":[
				0.1364995688199997,
				1.343737006187439,
				-0.16772954165935516
			]
		},
		{
			"name":"Lip_B0",
			"rotation":[
				-5.319955320715053e-08,
				1.3389578157330106e-07,
				0.04697571322321892,
				0.998896062374115
			],
			"translation":[
				0.19809222221374512,
				1.3495429754257202,
				1.975743089133175e-07
			]
		},
		{
			"name":"Lip_T0",
			"rotation":[
				-4.4514354868852024e-08,
				-4.9730193296682046e-08,
				0.04697595164179802,
				0.9988960027694702
			],
			"translation":[
				-0.17934751510620117,
				1.3139638900756836,
				-1.7887852266085247e-07
			]
		},
		{
			"children":[
				0,
				1,
				2,
				3,
				4,
				5,
				6,
				7
			],
			"name":"Mouth_Root",
			"rotation":[
				4.3692276108231454e-07,
				2.683353841348435e-07,
				-0.7071067690849304,
				0.7071067690849304
			],
			"scale":[
				1,
				0.9999999403953552,
				1
			],
			"translation":[
				0,
				1.000000238418579,
				0
			]
		},
		{
			"name":"Eye_L",
			"rotation":[
				0.4328915476799011,
				-3.4183837982482146e-08,
				-0.2291860431432724,
				0.8718249201774597
			],
			"scale":[
				1.0000001192092896,
				1,
				1
			],
			"translation":[
				1.1175870895385742e-08,
				0.4539203643798828,
				-5.960464477539063e-08
			]
		},
		{
			"children":[
				9
			],
			"name":"Eye_Root_L",
			"rotation":[
				-0.43811890482902527,
				0.07370994985103607,
				-0.015361285768449306,
				0.8957581520080566
			],
			"scale":[
				1.0000001192092896,
				0.9999999403953552,
				1
			],
			"translation":[
				-2.9802322387695312e-08,
				1.0295631885528564,
				2.1736398556179877e-14
			]
		},
		{
			"name":"Eye_R",
			"rotation":[
				-0.4316025972366333,
				2.136490095949739e-08,
				-0.2316044718027115,
				0.8718248605728149
			],
			"scale":[
				1.0000001192092896,
				1.0000001192092896,
				1
			],
			"translation":[
				-7.450580596923828e-08,
				0.4539204239845276,
				-8.940696716308594e-08
			]
		},
		{
			"children":[
				11
			],
			"name":"Eye_Root_R",
			"rotation":[
				0.4381602108478546,
				-0.07120393961668015,
				-0.014135517179965973,
				0.895960807800293
			],
			"translation":[
				-2.9802322387695312e-08,
				1.0295631885528564,
				2.1736398556179877e-14
			]
		},
		{
			"children":[
				10,
				12
			],
			"name":"Eye_Root",
			"rotation":[
				1.0816307849381701e-07,
				-2.1661332283429147e-08,
				-0.5071277618408203,
				0.8618708848953247
			],
			"translation":[
				0,
				1.000000238418579,
				0
			]
		},
		{
			"name":"Head",
			"translation":[
				0,
				1.000000238418579,
				0
			]
		},
		{
			"children":[
				8,
				13,
				14
			],
			"name":"Neck",
			"rotation":[
				0,
				2.842170943040401e-14,
				0,
				1
			],
			"translation":[
				0,
				1.7000004053115845,
				0
			]
		},
		{
			"name":"Limb_TL0",
			"rotation":[
				8.077935669463161e-28,
				3.552713678800501e-15,
				-6.018532224153814e-35,
				1
			],
			"translation":[
				1.3162920799452034e-14,
				1,
				2.384185791015625e-07
			]
		},
		{
			"children":[
				16
			],
			"name":"Limb_TL1",
			"rotation":[
				7.573064208639227e-28,
				3.552713678800501e-15,
				4.0389671125078513e-28,
				1
			],
			"translation":[
				1.3162920799452034e-14,
				1,
				2.384185791015625e-07
			]
		},
		{
			"children":[
				17
			],
			"name":"Limb_TL2",
			"rotation":[
				1.694066500353776e-21,
				3.552713678800501e-15,
				-7.105427357601002e-15,
				1
			],
			"translation":[
				-6.732277157083487e-15,
				1.0737417936325073,
				2.384185791015625e-07
			]
		},
		{
			"children":[
				18
			],
			"name":"Limb_TL3",
			"rotation":[
				-0.7071067690849304,
				2.0097183127203676e-14,
				-1.6858734852576163e-07,
				0.7071067690849304
			],
			"translation":[
				3.638882049017411e-07,
				2.387195587158203,
				-1.526258111000061
			]
		},
		{
			"name":"Limb_TR0",
			"rotation":[
				-5.505713349359385e-21,
				-2.9116757561866574e-22,
				2.1316282072803006e-14,
				1
			],
			"translation":[
				-5.684341886080802e-14,
				1,
				2.384185791015625e-07
			]
		},
		{
			"children":[
				20
			],
			"name":"Limb_TR1",
			"rotation":[
				6.058452715062343e-28,
				-2.9116757561866574e-22,
				-4.555420554339121e-22,
				1
			],
			"translation":[
				-1.1368683772161603e-13,
				1,
				2.384185791015625e-07
			]
		},
		{
			"children":[
				21
			],
			"name":"Limb_TR2",
			"rotation":[
				4.235165544065069e-21,
				4.263256414560601e-14,
				-1.4210854715202004e-14,
				1
			],
			"translation":[
				-2.842170943040401e-14,
				1.0737417936325073,
				2.384185791015625e-07
			]
		},
		{
			"children":[
				22
			],
			"name":"Limb_TR3",
			"rotation":[
				1.152022619521631e-07,
				-0.7071067690849304,
				-0.7071067690849304,
				5.338507591545749e-08
			],
			"translation":[
				-1.33429637116933e-07,
				2.387195587158203,
				1.526258111000061
			]
		},
		{
			"name":"Limb_BL0",
			"rotation":[
				0,
				2.117582368135751e-22,
				-2.407412430484045e-35,
				1
			],
			"translation":[
				0,
				1.000000238418579,
				0
			]
		},
		{
			"children":[
				24
			],
			"name":"Limb_BL1",
			"rotation":[
				0,
				-2.117582368135751e-21,
				-2.407412430484045e-35,
				1
			],
			"translation":[
				0,
				1,
				0
			]
		},
		{
			"children":[
				25
			],
			"name":"Limb_BL2",
			"rotation":[
				9.62964972193618e-35,
				1.4210863185531476e-14,
				1.4210854715202004e-14,
				1
			],
			"translation":[
				4.870439446712227e-21,
				1.077999472618103,
				0
			]
		},
		{
			"children":[
				26
			],
			"name":"Limb_BL3",
			"rotation":[
				-0.7071067690849304,
				-8.429368847373553e-08,
				-8.429367426288081e-08,
				0.7071067690849304
			],
			"translation":[
				4.5824046424058906e-07,
				0.7000004053115845,
				-1.9220002889633179
			]
		},
		{
			"name":"Limb_BR0",
			"rotation":[
				1.4098466877846558e-23,
				1.4055606045381983e-21,
				1.4210854715202004e-14,
				1
			],
			"translation":[
				0,
				1.000000238418579,
				0
			]
		},
		{
			"children":[
				28
			],
			"name":"Limb_BR1",
			"rotation":[
				4.22951781747644e-23,
				-7.105429051666896e-15,
				7.105427357601002e-15,
				1
			],
			"translation":[
				-2.842170943040401e-14,
				1,
				0
			]
		},
		{
			"children":[
				29
			],
			"name":"Limb_BR2",
			"rotation":[
				3.1058741259548555e-22,
				3.178655205715586e-08,
				1.4210854715202004e-14,
				1
			],
			"translation":[
				0,
				1.077999472618103,
				0
			]
		},
		{
			"children":[
				30
			],
			"name":"Limb_BR3",
			"rotation":[
				-8.432137654779126e-09,
				0.7071067690849304,
				0.7071067690849304,
				5.338508302088485e-08
			],
			"translation":[
				-1.6802647451186203e-07,
				0.7000004053115845,
				1.9220002889633179
			]
		},
		{
			"children":[
				15,
				19,
				23,
				27,
				31
			],
			"name":"Back",
			"rotation":[
				0,
				1.1920925402364446e-07,
				0,
				1
			],
			"scale":[
				1,
				0.9999999403953552,
				1
			],
			"translation":[
				0,
				1.2999999523162842,
				0
			]
		},
		{
			"children":[
				32
			],
			"name":"Pelvis"
		},
		{
			"mesh":0,
			"name":"Arm_LB",
			"skin":0
		},
		{
			"mesh":1,
			"name":"Arm_LT",
			"skin":0
		},
		{
			"mesh":2,
			"name":"Arm_RB",
			"skin":0
		},
		{
			"mesh":3,
			"name":"Arm_RT",
			"skin":0
		},
		{
			"mesh":4,
			"name":"Eye_LS",
			"skin":0
		},
		{
			"mesh":5,
			"name":"Eye_RS",
			"skin":0
		},
		{
			"mesh":6,
			"name":"Slime",
			"skin":0
		},
		{
			"children":[
				34,
				35,
				36,
				37,
				38,
				39,
				40,
				33
			],
			"name":"Root"
		}
	],
	"materials":[
		{
			"alphaMode":"BLEND",
			"doubleSided":true,
			"name":"Base",
			"pbrMetallicRoughness":{
				"baseColorFactor":[
					1,
					0,
					0,
					0.25
				],
				"metallicFactor":0,
				"roughnessFactor":0
			}
		},
		{
			"doubleSided":true,
			"name":"Eye",
			"pbrMetallicRoughness":{
				"metallicFactor":0
			}
		},
		{
			"doubleSided":true,
			"name":"EyeS",
			"pbrMetallicRoughness":{
				"baseColorFactor":[
					0,
					0,
					0,
					1
				],
				"metallicFactor":0
			}
		}
	],
	"meshes":[
		{
			"name":"Arm_LB",
			"primitives":[
				{
					"attributes":{
						"POSITION":0,
						"NORMAL":1,
						"TEXCOORD_0":2,
						"JOINTS_0":3,
						"WEIGHTS_0":4
					},
					"indices":5,
					"material":0
				}
			]
		},
		{
			"name":"Arm_LT",
			"primitives":[
				{
					"attributes":{
						"POSITION":7,
						"NORMAL":8,
						"TEXCOORD_0":9,
						"JOINTS_0":10,
						"WEIGHTS_0":11
					},
					"indices":5,
					"material":0
				}
			]
		},
		{
			"name":"Arm_RB",
			"primitives":[
				{
					"attributes":{
						"POSITION":12,
						"NORMAL":13,
						"TEXCOORD_0":14,
						"JOINTS_0":15,
						"WEIGHTS_0":16
					},
					"indices":5,
					"material":0
				}
			]
		},
		{
			"name":"Arm_RT",
			"primitives":[
				{
					"attributes":{
						"POSITION":17,
						"NORMAL":18,
						"TEXCOORD_0":19,
						"JOINTS_0":20,
						"WEIGHTS_0":21
					},
					"indices":5,
					"material":0
				}
			]
		},
		{
			"name":"Eye_LS",
			"primitives":[
				{
					"attributes":{
						"POSITION":22,
						"NORMAL":23,
						"TEXCOORD_0":24,
						"JOINTS_0":25,
						"WEIGHTS_0":26
					},
					"indices":27,
					"material":1
				},
				{
					"attributes":{
						"POSITION":28,
						"NORMAL":29,
						"TEXCOORD_0":30,
						"JOINTS_0":31,
						"WEIGHTS_0":32
					},
					"indices":33,
					"material":2
				}
			]
		},
		{
			"name":"Eye_RS",
			"primitives":[
				{
					"attributes":{
						"POSITION":34,
						"NORMAL":35,
						"TEXCOORD_0":36,
						"JOINTS_0":37,
						"WEIGHTS_0":38
					},
					"indices":39,
					"material":1
				},
				{
					"attributes":{
						"POSITION":40,
						"NORMAL":41,
						"TEXCOORD_0":42,
						"JOINTS_0":43,
						"WEIGHTS_0":44
					},
					"indices":45,
					"material":2
				}
			]
		},
		{
			"name":"Slime",
			"primitives":[
				{
					"attributes":{
						"POSITION":46,
						"NORMAL":47,
						"TEXCOORD_0":48,
						"JOINTS_0":49,
						"WEIGHTS_0":50
					},
					"indices":51,
					"material":0
				},
				{
					"attributes":{
						"POSITION":52,
						"NORMAL":53,
						"TEXCOORD_0":54,
						"JOINTS_0":55,
						"WEIGHTS_0":56
					},
					"indices":57,
					"material":2
				}
			]
		}
	],
	"skins":[
		{
			"inverseBindMatrices":6,
			"joints":[
				33,
				32,
				15,
				8,
				0,
				1,
				2,
				3,
				4,
				5,
				6,
				7,
				13,
				10,
				9,
				12,
				11,
				14,
				19,
				18,
				17,
				16,
				23,
				22,
				21,
				20,
				27,
				26,
				25,
				24,
				31,
				30,
				29,
				28
			],
			"name":"Root"
		}
	],
	"accessors":[
		{
			"bufferView":0,
			"componentType":5126,
			"count":887,
			"max":[
				0.2460574358701706,
				2.2312188148498535,
				-1.837843656539917
			],
			"min":[
				-0.24605734646320343,
				1.768782138824463,
				-6
			],
			"type":"VEC3"
		},
		{
			"bufferView":1,
			"componentType":5126,
			"count":887,
			"type":"VEC3"
		},
		{
			"bufferView":2,
			"componentType":5126,
			"count":887,
			"type":"VEC2"
		},
		{
			"bufferView":3,
			"componentType":5121,
			"count":887,
			"type":"VEC4"
		},
		{
			"bufferView":4,
			"componentType":5126,
			"count":887,
			"type":"VEC4"
		},
		{
			"bufferView":5,
			"componentType":5123,
			"count":4788,
			"type":"SCALAR"
		},
		{
			"bufferView":6,
			"componentType":5126,
			"count":34,
			"type":"MAT4"
		},
		{
			"bufferView":7,
			"componentType":5126,
			"count":887,
			"max":[
				0.2530757486820221,
				3.952113389968872,
				-1.4999432563781738
			],
			"min":[
				-0.25307565927505493,
				3.447887897491455,
				-5.599999904632568
			],
			"type":"VEC3"
		},
		{
			"bufferView":8,
			"componentType":5126,
			"count":887,
			"type":"VEC3"
		},
		{
			"bufferView":9,
			"componentType":5126,
			"count":887,
			"type":"VEC2"
		},
		{
			"bufferView":10,
			"componentType":5121,
			"count":887,
			"type":"VEC4"
		},
		{
			"bufferView":11,
			"componentType":5126,
			"count":887,
			"type":"VEC4"
		},
		{
			"bufferView":12,
			"componentType":5126,
			"count":887,
			"max":[
				0.2460576295852661,
				2.2312188148498535,
				6
			],
			"min":[
				-0.2460571527481079,
				1.768782138824463,
				1.837843656539917
			],
			"type":"VEC3"
		},
		{
			"bufferView":13,
			"componentType":5126,
			"count":887,
			"type":"VEC3"
		},
		{
			"bufferView":14,
			"componentType":5126,
			"count":887,
			"type":"VEC2"
		},
		{
			"bufferView":15,
			"componentType":5121,
			"count":887,
			"type":"VEC4"
		},
		{
			"bufferView":16,
			"componentType":5126,
			"count":887,
			"type":"VEC4"
		},
		{
			"bufferView":17,
			"componentType":5126,
			"count":887,
			"max":[
				0.25307589769363403,
				3.952113389968872,
				5.599999904632568
			],
			"min":[
				-0.253075510263443,
				3.447887897491455,
				1.4999432563781738
			],
			"type":"VEC3"
		},
		{
			"bufferView":18,
			"componentType":5126,
			"count":887,
			"type":"VEC3"
		},
		{
			"bufferView":19,
			"componentType":5126,
			"count":887,
			"type":"VEC2"
		},
		{
			"bufferView":20,
			"componentType":5121,
			"count":887,
			"type":"VEC4"
		},
		{
			"bufferView":21,
			"componentType":5126,
			"count":887,
			"type":"VEC4"
		},
		{
			"bufferView":22,
			"componentType":5126,
			"count":1984,
			"max":[
				1.33610999584198,
				4.850419998168945,
				-0.1573089361190796
			],
			"min":[
				0.936110258102417,
				4.450420379638672,
				-0.5573088526725769
			],
			"type":"VEC3"
		},
		{
			"bufferView":23,
			"componentType":5126,
			"count":1984,
			"type":"VEC3"
		},
		{
			"bufferView":24,
			"componentType":5126,
			"count":1984,
			"type":"VEC2"
		},
		{
			"bufferView":25,
			"componentType":5121,
			"count":1984,
			"type":"VEC4"
		},
		{
			"bufferView":26,
			"componentType":5126,
			"count":1984,
			"type":"VEC4"
		},
		{
			"bufferView":27,
			"componentType":5123,
			"count":2880,
			"type":"SCALAR"
		},
		{
			"bufferView":28,
			"componentType":5126,
			"count":32,
			"max":[
				1.3400003910064697,
				4.709999084472656,
				-0.30000004172325134
			],
			"min":[
				1.3400003910064697,
				4.589999198913574,
				-0.4200000464916229
			],
			"type":"VEC3"
		},
		{
			"bufferView":29,
			"componentType":5126,
			"count":32,
			"type":"VEC3"
		},
		{
			"bufferView":30,
			"componentType":5126,
			"count":32,
			"type":"VEC2"
		},
		{
			"bufferView":31,
			"componentType":5121,
			"count":32,
			"type":"VEC4"
		},
		{
			"bufferView":32,
			"componentType":5126,
			"count":32,
			"type":"VEC4"
		},
		{
			"bufferView":33,
			"componentType":5123,
			"count":90,
			"type":"SCALAR"
		},
		{
			"bufferView":34,
			"componentType":5126,
			"count":1984,
			"max":[
				1.33610999584198,
				4.850419998168945,
				0.5573088526725769
			],
			"min":[
				0.936110258102417,
				4.450420379638672,
				0.1573089361190796
			],
			"type":"VEC3"
		},
		{
			"bufferView":35,
			"componentType":5126,
			"count":1984,
			"type":"VEC3"
		},
		{
			"bufferView":36,
			"componentType":5126,
			"count":1984,
			"type":"VEC2"
		},
		{
			"bufferView":37,
			"componentType":5121,
			"count":1984,
			"type":"VEC4"
		},
		{
			"bufferView":38,
			"componentType":5126,
			"count":1984,
			"type":"VEC4"
		},
		{
			"bufferView":39,
			"componentType":5123,
			"count":2880,
			"type":"SCALAR"
		},
		{
			"bufferView":40,
			"componentType":5126,
			"count":32,
			"max":[
				1.3400003910064697,
				4.709999084472656,
				0.4200000464916229
			],
			"min":[
				1.3400003910064697,
				4.589999198913574,
				0.30000004172325134
			],
			"type":"VEC3"
		},
		{
			"bufferView":41,
			"componentType":5126,
			"count":32,
			"type":"VEC3"
		},
		{
			"bufferView":42,
			"componentType":5126,
			"count":32,
			"type":"VEC2"
		},
		{
			"bufferView":43,
			"componentType":5121,
			"count":32,
			"type":"VEC4"
		},
		{
			"bufferView":44,
			"componentType":5126,
			"count":32,
			"type":"VEC4"
		},
		{
			"bufferView":45,
			"componentType":5123,
			"count":90,
			"type":"SCALAR"
		},
		{
			"bufferView":46,
			"componentType":5126,
			"count":6033,
			"max":[
				2.0850698947906494,
				5.292240142822266,
				2.0850701332092285
			],
			"min":[
				-2.0850698947906494,
				0.0927298367023468,
				-2.0850698947906494
			],
			"type":"VEC3"
		},
		{
			"bufferView":47,
			"componentType":5126,
			"count":6033,
			"type":"VEC3"
		},
		{
			"bufferView":48,
			"componentType":5126,
			"count":6033,
			"type":"VEC2"
		},
		{
			"bufferView":49,
			"componentType":5121,
			"count":6033,
			"type":"VEC4"
		},
		{
			"bufferView":50,
			"componentType":5126,
			"count":6033,
			"type":"VEC4"
		},
		{
			"bufferView":51,
			"componentType":5123,
			"count":34728,
			"type":"SCALAR"
		},
		{
			"bufferView":52,
			"componentType":5126,
			"count":28,
			"max":[
				1.3495429754257202,
				4.179347515106201,
				0.47999998927116394
			],
			"min":[
				1.3139638900756836,
				3.801907777786255,
				-0.47999998927116394
			],
			"type":"VEC3"
		},
		{
			"bufferView":53,
			"componentType":5126,
			"count":28,
			"type":"VEC3"
		},
		{
			"bufferView":54,
			"componentType":5126,
			"count":28,
			"type":"VEC2"
		},
		{
			"bufferView":55,
			"componentType":5121,
			"count":28,
			"type":"VEC4"
		},
		{
			"bufferView":56,
			"componentType":5126,
			"count":28,
			"type":"VEC4"
		},
		{
			"bufferView":57,
			"componentType":5123,
			"count":84,
			"type":"SCALAR"
		}
	],
	"bufferViews":[
		{
			"buffer":0,
			"byteLength":10644,
			"byteOffset":0,
			"target":34962
		},
		{
			"buffer":0,
			"byteLength":10644,
			"byteOffset":10644,
			"target":34962
		},
		{
			"buffer":0,
			"byteLength":7096,
			"byteOffset":21288,
			"target":34962
		},
		{
			"buffer":0,
			"byteLength":3548,
			"byteOffset":28384,
			"target":34962
		},
		{
			"buffer":0,
			"byteLength":14192,
			"byteOffset":31932,
			"target":34962
		},
		{
			"buffer":0,
			"byteLength":9576,
			"byteOffset":46124,
			"target":34963
		},
		{
			"buffer":0,
			"byteLength":2176,
			"byteOffset":55700
		},
		{
			"buffer":0,
			"byteLength":10644,
			"byteOffset":57876,
			"target":34962
		},
		{
			"buffer":0,
			"byteLength":10644,
			"byteOffset":68520,
			"target":34962
		},
		{
			"buffer":0,
			"byteLength":7096,
			"byteOffset":79164,
			"target":34962
		},
		{
			"buffer":0,
			"byteLength":3548,
			"byteOffset":86260,
			"target":34962
		},
		{
			"buffer":0,
			"byteLength":14192,
			"byteOffset":89808,
			"target":34962
		},
		{
			"buffer":0,
			"byteLength":10644,
			"byteOffset":104000,
			"target":34962
		},
		{
			"buffer":0,
			"byteLength":10644,
			"byteOffset":114644,
			"target":34962
		},
		{
			"buffer":0,
			"byteLength":7096,
			"byteOffset":125288,
			"target":34962
		},
		{
			"buffer":0,
			"byteLength":3548,
			"byteOffset":132384,
			"target":34962
		},
		{
			"buffer":0,
			"byteLength":14192,
			"byteOffset":135932,
			"target":34962
		},
		{
			"buffer":0,
			"byteLength":10644,
			"byteOffset":150124,
			"target":34962
		},
		{
			"buffer":0,
			"byteLength":10644,
			"byteOffset":160768,
			"target":34962
		},
		{
			"buffer":0,
			"byteLength":7096,
			"byteOffset":171412,
			"target":34962
		},
		{
			"buffer":0,
			"byteLength":3548,
			"byteOffset":178508,
			"target":34962
		},
		{
			"buffer":0,
			"byteLength":14192,
			"byteOffset":182056,
			"target":34962
		},
		{
			"buffer":0,
			"byteLength":23808,
			"byteOffset":196248,
			"target":34962
		},
		{
			"buffer":0,
			"byteLength":23808,
			"byteOffset":220056,
			"target":34962
		},
		{
			"buffer":0,
			"byteLength":15872,
			"byteOffset":243864,
			"target":34962
		},
		{
			"buffer":0,
			"byteLength":7936,
			"byteOffset":259736,
			"target":34962
		},
		{
			"buffer":0,
			"byteLength":31744,
			"byteOffset":267672,
			"target":34962
		},
		{
			"buffer":0,
			"byteLength":5760,
			"byteOffset":299416,
			"target":34963
		},
		{
			"buffer":0,
			"byteLength":384,
			"byteOffset":305176,
			"target":34962
		},
		{
			"buffer":0,
			"byteLength":384,
			"byteOffset":305560,
			"target":34962
		},
		{
			"buffer":0,
			"byteLength":256,
			"byteOffset":305944,
			"target":34962
		},
		{
			"buffer":0,
			"byteLength":128,
			"byteOffset":306200,
			"target":34962
		},
		{
			"buffer":0,
			"byteLength":512,
			"byteOffset":306328,
			"target":34962
		},
		{
			"buffer":0,
			"byteLength":180,
			"byteOffset":306840,
			"target":34963
		},
		{
			"buffer":0,
			"byteLength":23808,
			"byteOffset":307020,
			"target":34962
		},
		{
			"buffer":0,
			"byteLength":23808,
			"byteOffset":330828,
			"target":34962
		},
		{
			"buffer":0,
			"byteLength":15872,
			"byteOffset":354636,
			"target":34962
		},
		{
			"buffer":0,
			"byteLength":7936,
			"byteOffset":370508,
			"target":34962
		},
		{
			"buffer":0,
			"byteLength":31744,
			"byteOffset":378444,
			"target":34962
		},
		{
			"buffer":0,
			"byteLength":5760,
			"byteOffset":410188,
			"target":34963
		},
		{
			"buffer":0,
			"byteLength":384,
			"byteOffset":415948,
			"target":34962
		},
		{
			"buffer":0,
			"byteLength":384,
			"byteOffset":416332,
			"target":34962
		},
		{
			"buffer":0,
			"byteLength":256,
			"byteOffset":416716,
			"target":34962
		},
		{
			"buffer":0,
			"byteLength":128,
			"byteOffset":416972,
			"target":34962
		},
		{
			"buffer":0,
			"byteLength":512,
			"byteOffset":417100,
			"target":34962
		},
		{
			"buffer":0,
			"byteLength":180,
			"byteOffset":417612,
			"target":34963
		},
		{
			"buffer":0,
			"byteLength":72396,
			"byteOffset":417792,
			"target":34962
		},
		{
			"buffer":0,
			"byteLength":72396,
			"byteOffset":490188,
			"target":34962
		},
		{
			"buffer":0,
			"byteLength":48264,
			"byteOffset":562584,
			"target":34962
		},
		{
			"buffer":0,
			"byteLength":24132,
			"byteOffset":610848,
			"target":34962
		},
		{
			"buffer":0,
			"byteLength":96528,
			"byteOffset":634980,
			"target":34962
		},
		{
			"buffer":0,
			"byteLength":69456,
			"byteOffset":731508,
			"target":34963
		},
		{
			"buffer":0,
			"byteLength":336,
			"byteOffset":800964,
			"target":34962
		},
		{
			"buffer":0,
			"byteLength":336,
			"byteOffset":801300,
			"target":34962
		},
		{
			"buffer":0,
			"byteLength":224,
			"byteOffset":801636,
			"target":34962
		},
		{
			"buffer":0,
			"byteLength":112,
			"byteOffset":801860,
			"target":34962
		},
		{
			"buffer":0,
			"byteLength":448,
			"byteOffset":801972,
			"target":34962
		},
		{
			"buffer":0,
			"byteLength":168,
			"byteOffset":802420,
			"target":34963
		}
	],
	"buffers":[
		{
			"byteLength":802588,
			"uri":"data:application/octet-stream;base64,"
		}
	]
}
