{
	"asset":{
		"generator":"Khronos glTF Blender I/O v5.1.18",
		"version":"2.0"
	},
	"scene":0,
	"scenes":[
		{
			"name":"Scene",
			"nodes":[
				4
			]
		}
	],
	"nodes":[
		{
			"name":"Head",
			"translation":[
				0,
				2.200000047683716,
				0
			]
		},
		{
			"name":"Glasses",
			"rotation":[
				-2.6692537957728746e-08,
				-2.6692537957728746e-08,
				-0.7071067690849304,
				0.7071067690849304
			],
			"translation":[
				0,
				2.200000047683716,
				0
			]
		},
		{
			"children":[
				0,
				1
			],
			"name":"Root"
		},
		{
			"mesh":0,
			"name":"Slime",
			"skin":0
		},
		{
			"children":[
				3,
				2
			],
			"name":"Slime_Rig"
		}
	],
	"animations":[
		{
			"channels":[
				{
					"sampler":0,
					"target":{
						"node":2,
						"path":"translation"
					}
				},
				{
					"sampler":1,
					"target":{
						"node":2,
						"path":"rotation"
					}
				},
				{
					"sampler":2,
					"target":{
						"node":2,
						"path":"scale"
					}
				},
				{
					"sampler":3,
					"target":{
						"node":0,
						"path":"translation"
					}
				},
				{
					"sampler":4,
					"target":{
						"node":0,
						"path":"rotation"
					}
				},
				{
					"sampler":5,
					"target":{
						"node":0,
						"path":"scale"
					}
				},
				{
					"sampler":6,
					"target":{
						"node":1,
						"path":"translation"
					}
				},
				{
					"sampler":7,
					"target":{
						"node":1,
						"path":"rotation"
					}
				},
				{
					"sampler":8,
					"target":{
						"node":1,
						"path":"scale"
					}
				}
			],
			"name":"Action_DeathAnim",
			"samplers":[
				{
					"input":13,
					"interpolation":"LINEAR",
					"output":14
				},
				{
					"input":13,
					"interpolation":"LINEAR",
					"output":15
				},
				{
					"input":16,
					"interpolation":"STEP",
					"output":17
				},
				{
					"input":16,
					"interpolation":"STEP",
					"output":18
				},
				{
					"input":16,
					"interpolation":"STEP",
					"output":19
				},
				{
					"input":16,
					"interpolation":"STEP",
					"output":20
				},
				{
					"input":16,
					"interpolation":"STEP",
					"output":21
				},
				{
					"input":16,
					"interpolation":"STEP",
					"output":22
				},
				{
					"input":16,
					"interpolation":"STEP",
					"output":23
				}
			]
		},
		{
			"channels":[
				{
					"sampler":0,
					"target":{
						"node":2,
						"path":"translation"
					}
				},
				{
					"sampler":1,
					"target":{
						"node":2,
						"path":"rotation"
					}
				},
				{
					"sampler":2,
					"target":{
						"node":2,
						"path":"scale"
					}
				},
				{
					"sampler":3,
					"target":{
						"node":0,
						"path":"translation"
					}
				},
				{
					"sampler":4,
					"target":{
						"node":0,
						"path":"rotation"
					}
				},
				{
					"sampler":5,
					"target":{
						"node":0,
						"path":"scale"
					}
				},
				{
					"sampler":6,
					"target":{
						"node":1,
						"path":"translation"
					}
				},
				{
					"sampler":7,
					"target":{
						"node":1,
						"path":"rotation"
					}
				},
				{
					"sampler":8,
					"target":{
						"node":1,
						"path":"scale"
					}
				}
			],
			"name":"Action_BounceForward",
			"samplers":[
				{
					"input":24,
					"interpolation":"LINEAR",
					"output":25
				},
				{
					"input":26,
					"interpolation":"STEP",
					"output":27
				},
				{
					"input":26,
					"interpolation":"STEP",
					"output":28
				},
				{
					"input":24,
					"interpolation":"LINEAR",
					"output":29
				},
				{
					"input":24,
					"interpolation":"LINEAR",
					"output":30
				},
				{
					"input":26,
					"interpolation":"STEP",
					"output":28
				},
				{
					"input":26,
					"interpolation":"STEP",
					"output":31
				},
				{
					"input":24,
					"interpolation":"LINEAR",
					"output":32
				},
				{
					"input":26,
					"interpolation":"STEP",
					"output":28
				}
			]
		},
		{
			"channels":[
				{
					"sampler":0,
					"target":{
						"node":2,
						"path":"translation"
					}
				},
				{
					"sampler":1,
					"target":{
						"node":2,
						"path":"rotation"
					}
				},
				{
					"sampler":2,
					"target":{
						"node":2,
						"path":"scale"
					}
				},
				{
					"sampler":3,
					"target":{
						"node":0,
						"path":"translation"
					}
				},
				{
					"sampler":4,
					"target":{
						"node":0,
						"path":"rotation"
					}
				},
				{
					"sampler":5,
					"target":{
						"node":0,
						"path":"scale"
					}
				},
				{
					"sampler":6,
					"target":{
						"node":1,
						"path":"translation"
					}
				},
				{
					"sampler":7,
					"target":{
						"node":1,
						"path":"rotation"
					}
				},
				{
					"sampler":8,
					"target":{
						"node":1,
						"path":"scale"
					}
				}
			],
			"name":"Action_AttackForward",
			"samplers":[
				{
					"input":33,
					"interpolation":"LINEAR",
					"output":34
				},
				{
					"input":35,
					"interpolation":"STEP",
					"output":27
				},
				{
					"input":35,
					"interpolation":"STEP",
					"output":28
				},
				{
					"input":33,
					"interpolation":"LINEAR",
					"output":36
				},
				{
					"input":33,
					"interpolation":"LINEAR",
					"output":37
				},
				{
					"input":35,
					"interpolation":"STEP",
					"output":28
				},
				{
					"input":35,
					"interpolation":"STEP",
					"output":31
				},
				{
					"input":33,
					"interpolation":"LINEAR",
					"output":38
				},
				{
					"input":35,
					"interpolation":"STEP",
					"output":28
				}
			]
		},
		{
			"channels":[
				{
					"sampler":0,
					"target":{
						"node":2,
						"path":"translation"
					}
				},
				{
					"sampler":1,
					"target":{
						"node":2,
						"path":"rotation"
					}
				},
				{
					"sampler":2,
					"target":{
						"node":2,
						"path":"scale"
					}
				},
				{
					"sampler":3,
					"target":{
						"node":0,
						"path":"translation"
					}
				},
				{
					"sampler":4,
					"target":{
						"node":0,
						"path":"rotation"
					}
				},
				{
					"sampler":5,
					"target":{
						"node":0,
						"path":"scale"
					}
				},
				{
					"sampler":6,
					"target":{
						"node":1,
						"path":"translation"
					}
				},
				{
					"sampler":7,
					"target":{
						"node":1,
						"path":"rotation"
					}
				},
				{
					"sampler":8,
					"target":{
						"node":1,
						"path":"scale"
					}
				}
			],
			"name":"Idle",
			"samplers":[
				{
					"input":39,
					"interpolation":"STEP",
					"output":40
				},
				{
					"input":39,
					"interpolation":"STEP",
					"output":27
				},
				{
					"input":39,
					"interpolation":"STEP",
					"output":28
				},
				{
					"input":39,
					"interpolation":"STEP",
					"output":31
				},
				{
					"input":39,
					"interpolation":"STEP",
					"output":27
				},
				{
					"input":39,
					"interpolation":"STEP",
					"output":28
				},
				{
					"input":39,
					"interpolation":"STEP",
					"output":31
				},
				{
					"input":39,
					"interpolation":"STEP",
					"output":41
				},
				{
					"input":39,
					"interpolation":"STEP",
					"output":28
				}
			]
		}
	],
	"materials":[
		{
			"alphaMode":"BLEND",
			"doubleSided":true,
			"name":"SlimeRandomised",
			"pbrMetallicRoughness":{
				"baseColorFactor":[
					1,
					1,
					1,
					0.5
				],
				"metallicFactor":0
			}
		},
		{
			"doubleSided":true,
			"name":"SunGlasses",
			"pbrMetallicRoughness":{
				"baseColorFactor":[
					0,
					0,
					0,
					1
				],
				"metallicFactor":0
			}
		}
	],
	"meshes":[
		{
			"name":"Slime",
			"primitives":[
				{
					"attributes":{
						"POSITION":0,
						"NORMAL":1,
						"TEXCOORD_0":2,
						"JOINTS_0":3,
						"WEIGHTS_0":4
					},
					"indices":5,
					"material":0
				},
				{
					"attributes":{
						"POSITION":6,
						"NORMAL":7,
						"TEXCOORD_0":8,
						"JOINTS_0":9,
						"WEIGHTS_0":10
					},
					"indices":11,
					"material":1
				}
			]
		}
	],
	"skins":[
		{
			"inverseBindMatrices":12,
			"joints":[
				2,
				0,
				1
			],
			"name":"Slime_Rig"
		}
	],
	"accessors":[
		{
			"bufferView":0,
			"componentType":5126,
			"count":1280,
			"max":[
				2.009505271911621,
				3.4814820289611816,
				2.009505271911621
			],
			"min":[
				-2.009505271911621,
				0.004012346733361483,
				-2.009505271911621
			],
			"type":"VEC3"
		},
		{
			"bufferView":1,
			"componentType":5126,
			"count":1280,
			"type":"VEC3"
		},
		{
			"bufferView":2,
			"componentType":5126,
			"count":1280,
			"type":"VEC2"
		},
		{
			"bufferView":3,
			"componentType":5121,
			"count":1280,
			"type":"VEC4"
		},
		{
			"bufferView":4,
			"componentType":5126,
			"count":1280,
			"type":"VEC4"
		},
		{
			"bufferView":5,
			"componentType":5123,
			"count":1920,
			"type":"SCALAR"
		},
		{
			"bufferView":6,
			"componentType":5126,
			"count":207,
			"max":[
				2.040219783782959,
				2.3153626918792725,
				1.9200003147125244
			],
			"min":[
				2,
				1.5728480815887451,
				-1.9200003147125244
			],
			"type":"VEC3"
		},
		{
			"bufferView":7,
			"componentType":5126,
			"count":207,
			"type":"VEC3"
		},
		{
			"bufferView":8,
			"componentType":5126,
			"count":207,
			"type":"VEC2"
		},
		{
			"bufferView":9,
			"componentType":5121,
			"count":207,
			"type":"VEC4"
		},
		{
			"bufferView":10,
			"componentType":5126,
			"count":207,
			"type":"VEC4"
		},
		{
			"bufferView":11,
			"componentType":5123,
			"count":960,
			"type":"SCALAR"
		},
		{
			"bufferView":12,
			"componentType":5126,
			"count":3,
			"type":"MAT4"
		},
		{
			"bufferView":13,
			"componentType":5126,
			"count":25,
			"max":[
				1.0416666666666667
			],
			"min":[
				0.041666666666666664
			],
			"type":"SCALAR"
		},
		{
			"bufferView":14,
			"componentType":5126,
			"count":25,
			"type":"VEC3"
		},
		{
			"bufferView":15,
			"componentType":5126,
			"count":25,
			"type":"VEC4"
		},
		{
			"bufferView":16,
			"componentType":5126,
			"count":2,
			"max":[
				1.0416666666666667
			],
			"min":[
				0.041666666666666664
			],
			"type":"SCALAR"
		},
		{
			"bufferView":17,
			"componentType":5126,
			"count":2,
			"type":"VEC3"
		},
		{
			"bufferView":18,
			"componentType":5126,
			"count":2,
			"type":"VEC3"
		},
		{
			"bufferView":19,
			"componentType":5126,
			"count":2,
			"type":"VEC4"
		},
		{
			"bufferView":20,
			"componentType":5126,
			"count":2,
			"type":"VEC3"
		},
		{
			"bufferView":21,
			"componentType":5126,
			"count":2,
			"type":"VEC3"
		},
		{
			"bufferView":22,
			"componentType":5126,
			"count":2,
			"type":"VEC4"
		},
		{
			"bufferView":23,
			"componentType":5126,
			"count":2,
			"type":"VEC3"
		},
		{
			"bufferView":24,
			"componentType":5126,
			"count":50,
			"max":[
				2.0833333333333335
			],
			"min":[
				0.041666666666666664
			],
			"type":"SCALAR"
		},
		{
			"bufferView":25,
			"componentType":5126,
			"count":50,
			"type":"VEC3"
		},
		{
			"bufferView":26,
			"componentType":5126,
			"count":2,
			"max":[
				2.0833333333333335
			],
			"min":[
				0.041666666666666664
			],
			"type":"SCALAR"
		},
		{
			"bufferView":27,
			"componentType":5126,
			"count":2,
			"type":"VEC4"
		},
		{
			"bufferView":28,
			"componentType":5126,
			"count":2,
			"type":"VEC3"
		},
		{
			"bufferView":29,
			"componentType":5126,
			"count":50,
			"type":"VEC3"
		},
		{
			"bufferView":30,
			"componentType":5126,
			"count":50,
			"type":"VEC4"
		},
		{
			"bufferView":31,
			"componentType":5126,
			"count":2,
			"type":"VEC3"
		},
		{
			"bufferView":32,
			"componentType":5126,
			"count":50,
			"type":"VEC4"
		},
		{
			"bufferView":33,
			"componentType":5126,
			"count":16,
			"max":[
				0.6666666666666666
			],
			"min":[
				0.041666666666666664
			],
			"type":"SCALAR"
		},
		{
			"bufferView":34,
			"componentType":5126,
			"count":16,
			"type":"VEC3"
		},
		{
			"bufferView":35,
			"componentType":5126,
			"count":2,
			"max":[
				0.6666666666666666
			],
			"min":[
				0.041666666666666664
			],
			"type":"SCALAR"
		},
		{
			"bufferView":36,
			"componentType":5126,
			"count":16,
			"type":"VEC3"
		},
		{
			"bufferView":37,
			"componentType":5126,
			"count":16,
			"type":"VEC4"
		},
		{
			"bufferView":38,
			"componentType":5126,
			"count":16,
			"type":"VEC4"
		},
		{
			"bufferView":39,
			"componentType":5126,
			"count":2,
			"max":[
				0.041666666666666664
			],
			"min":[
				0
			],
			"type":"SCALAR"
		},
		{
			"bufferView":40,
			"componentType":5126,
			"count":2,
			"type":"VEC3"
		},
		{
			"bufferView":41,
			"componentType":5126,
			"count":2,
			"type":"VEC4"
		}
	],
	"bufferViews":[
		{
			"buffer":0,
			"byteLength":15360,
			"byteOffset":0,
			"target":34962
		},
		{
			"buffer":0,
			"byteLength":15360,
			"byteOffset":15360,
			"target":34962
		},
		{
			"buffer":0,
			"byteLength":10240,
			"byteOffset":30720,
			"target":34962
		},
		{
			"buffer":0,
			"byteLength":5120,
			"byteOffset":40960,
			"target":34962
		},
		{
			"buffer":0,
			"byteLength":20480,
			"byteOffset":46080,
			"target":34962
		},
		{
			"buffer":0,
			"byteLength":3840,
			"byteOffset":66560,
			"target":34963
		},
		{
			"buffer":0,
			"byteLength":2484,
			"byteOffset":70400,
			"target":34962
		},
		{
			"buffer":0,
			"byteLength":2484,
			"byteOffset":72884,
			"target":34962
		},
		{
			"buffer":0,
			"byteLength":1656,
			"byteOffset":75368,
			"target":34962
		},
		{
			"buffer":0,
			"byteLength":828,
			"byteOffset":77024,
			"target":34962
		},
		{
			"buffer":0,
			"byteLength":3312,
			"byteOffset":77852,
			"target":34962
		},
		{
			"buffer":0,
			"byteLength":1920,
			"byteOffset":81164,
			"target":34963
		},
		{
			"buffer":0,
			"byteLength":192,
			"byteOffset":83084
		},
		{
			"buffer":0,
			"byteLength":100,
			"byteOffset":83276
		},
		{
			"buffer":0,
			"byteLength":300,
			"byteOffset":83376
		},
		{
			"buffer":0,
			"byteLength":400,
			"byteOffset":83676
		},
		{
			"buffer":0,
			"byteLength":8,
			"byteOffset":84076
		},
		{
			"buffer":0,
			"byteLength":24,
			"byteOffset":84084
		},
		{
			"buffer":0,
			"byteLength":24,
			"byteOffset":84108
		},
		{
			"buffer":0,
			"byteLength":32,
			"byteOffset":84132
		},
		{
			"buffer":0,
			"byteLength":24,
			"byteOffset":84164
		},
		{
			"buffer":0,
			"byteLength":24,
			"byteOffset":84188
		},
		{
			"buffer":0,
			"byteLength":32,
			"byteOffset":84212
		},
		{
			"buffer":0,
			"byteLength":24,
			"byteOffset":84244
		},
		{
			"buffer":0,
			"byteLength":200,
			"byteOffset":84268
		},
		{
			"buffer":0,
			"byteLength":600,
			"byteOffset":84468
		},
		{
			"buffer":0,
			"byteLength":8,
			"byteOffset":85068
		},
		{
			"buffer":0,
			"byteLength":32,
			"byteOffset":85076
		},
		{
			"buffer":0,
			"byteLength":24,
			"byteOffset":85108
		},
		{
			"buffer":0,
			"byteLength":600,
			"byteOffset":85132
		},
		{
			"buffer":0,
			"byteLength":800,
			"byteOffset":85732
		},
		{
			"buffer":0,
			"byteLength":24,
			"byteOffset":86532
		},
		{
			"buffer":0,
			"byteLength":800,
			"byteOffset":86556
		},
		{
			"buffer":0,
			"byteLength":64,
			"byteOffset":87356
		},
		{
			"buffer":0,
			"byteLength":192,
			"byteOffset":87420
		},
		{
			"buffer":0,
			"byteLength":8,
			"byteOffset":87612
		},
		{
			"buffer":0,
			"byteLength":192,
			"byteOffset":87620
		},
		{
			"buffer":0,
			"byteLength":256,
			"byteOffset":87812
		},
		{
			"buffer":0,
			"byteLength":256,
			"byteOffset":88068
		},
		{
			"buffer":0,
			"byteLength":8,
			"byteOffset":88324
		},
		{
			"buffer":0,
			"byteLength":24,
			"byteOffset":88332
		},
		{
			"buffer":0,
			"byteLength":32,
			"byteOffset":88356
		}
	],
	"buffers":[
		{
			"byteLength":88388,
			"uri":"data:application/octet-stream;base64,"
		}
	]
}
