{
	"asset":{
		"generator":"Khronos glTF Blender I/O v5.1.18",
		"version":"2.0"
	},
	"scene":0,
	"scenes":[
		{
			"name":"Scene",
			"nodes":[
				0,
				1,
				2
			]
		}
	],
	"nodes":[
		{
			"mesh":0,
			"name":"BossRoom"
		},
		{
			"mesh":1,
			"name":"InnerFloor"
		},
		{
			"mesh":2,
			"name":"Pillar.001"
		}
	],
	"materials":[
		{
			"doubleSided":true,
			"name":"BossRoom",
			"pbrMetallicRoughness":{
				"baseColorFactor":[
					1,
					0.8879232406616211,
					0.41254279017448425,
					1
				],
				"metallicFactor":0
			}
		},
		{
			"doubleSided":true,
			"name":"Floor",
			"pbrMetallicRoughness":{
				"metallicFactor":0
			}
		},
		{
			"doubleSided":true,
			"name":"InnerFloor",
			"pbrMetallicRoughness":{
				"metallicFactor":0
			}
		},
		{
			"doubleSided":true,
			"name":"IF_Inner",
			"pbrMetallicRoughness":{
				"metallicFactor":0
			}
		},
		{
			"doubleSided":true,
			"name":"PillarMaterial",
			"pbrMetallicRoughness":{
				"metallicFactor":0
			}
		}
	],
	"meshes":[
		{
			"name":"BossRoom",
			"primitives":[
				{
					"attributes":{
						"POSITION":0,
						"NORMAL":1,
						"TEXCOORD_0":2
					},
					"indices":3,
					"material":0
				},
				{
					"attributes":{
						"POSITION":4,
						"NORMAL":5,
						"TEXCOORD_0":6
					},
					"indices":7,
					"material":1
				}
			]
		},
		{
			"name":"InnerFloor",
			"primitives":[
				{
					"attributes":{
						"POSITION":8,
						"NORMAL":9,
						"TEXCOORD_0":10
					},
					"indices":11,
					"material":2
				},
				{
					"attributes":{
						"POSITION":12,
						"NORMAL":13,
						"TEXCOORD_0":14
					},
					"indices":15,
					"material":3
				}
			]
		},
		{
			"name":"Pillar.001",
			"primitives":[
				{
					"attributes":{
						"POSITION":16,
						"NORMAL":17,
						"TEXCOORD_0":18
					},
					"indices":19,
					"material":4
				}
			]
		}
	],
	"accessors":[
		{
			"bufferView":0,
			"componentType":5126,
			"count":256,
			"max":[
				10,
				2.3600001335144043,
				10
			],
			"min":[
				-10,
				0.1312008500099182,
				-10
			],
			"type":"VEC3"
		},
		{
			"bufferView":1,
			"componentType":5126,
			"count":256,
			"type":"VEC3"
		},
		{
			"bufferView":2,
			"componentType":5126,
			"count":256,
			"type":"VEC2"
		},
		{
			"bufferView":3,
			"componentType":5123,
			"count":384,
			"type":"SCALAR"
		},
		{
			"bufferView":4,
			"componentType":5126,
			"count":288,
			"max":[
				9.96467399597168,
				0.1312008500099182,
				9.96467399597168
			],
			"min":[
				-9.96467399597168,
				0,
				-9.96467399597168
			],
			"type":"VEC3"
		},
		{
			"bufferView":5,
			"componentType":5126,
			"count":288,
			"type":"VEC3"
		},
		{
			"bufferView":6,
			"componentType":5126,
			"count":288,
			"type":"VEC2"
		},
		{
			"bufferView":7,
			"componentType":5123,
			"count":474,
			"type":"SCALAR"
		},
		{
			"bufferView":8,
			"componentType":5126,
			"count":1344,
			"max":[
				6.5,
				0.06104790419340134,
				6.5
			],
			"min":[
				-6.5,
				-0.05000000074505806,
				-6.5
			],
			"type":"VEC3"
		},
		{
			"bufferView":9,
			"componentType":5126,
			"count":1344,
			"type":"VEC3"
		},
		{
			"bufferView":10,
			"componentType":5126,
			"count":1344,
			"type":"VEC2"
		},
		{
			"bufferView":11,
			"componentType":5123,
			"count":2490,
			"type":"SCALAR"
		},
		{
			"bufferView":12,
			"componentType":5126,
			"count":64,
			"max":[
				6.403769493103027,
				0.06104790419340134,
				6.403769493103027
			],
			"min":[
				-6.403769493103027,
				0.06104790419340134,
				-6.403769493103027
			],
			"type":"VEC3"
		},
		{
			"bufferView":13,
			"componentType":5126,
			"count":64,
			"type":"VEC3"
		},
		{
			"bufferView":14,
			"componentType":5126,
			"count":64,
			"type":"VEC2"
		},
		{
			"bufferView":15,
			"componentType":5123,
			"count":186,
			"type":"SCALAR"
		},
		{
			"bufferView":16,
			"componentType":5126,
			"count":26352,
			"max":[
				9.239999771118164,
				2.3600001335144043,
				9.239998817443848
			],
			"min":[
				-9.239999771118164,
				0,
				-9.239998817443848
			],
			"type":"VEC3"
		},
		{
			"bufferView":17,
			"componentType":5126,
			"count":26352,
			"type":"VEC3"
		},
		{
			"bufferView":18,
			"componentType":5126,
			"count":26352,
			"type":"VEC2"
		},
		{
			"bufferView":19,
			"componentType":5123,
			"count":144864,
			"type":"SCALAR"
		}
	],
	"bufferViews":[
		{
			"buffer":0,
			"byteLength":3072,
			"byteOffset":0,
			"target":34962
		},
		{
			"buffer":0,
			"byteLength":3072,
			"byteOffset":3072,
			"target":34962
		},
		{
			"buffer":0,
			"byteLength":2048,
			"byteOffset":6144,
			"target":34962
		},
		{
			"buffer":0,
			"byteLength":768,
			"byteOffset":8192,
			"target":34963
		},
		{
			"buffer":0,
			"byteLength":3456,
			"byteOffset":8960,
			"target":34962
		},
		{
			"buffer":0,
			"byteLength":3456,
			"byteOffset":12416,
			"target":34962
		},
		{
			"buffer":0,
			"byteLength":2304,
			"byteOffset":15872,
			"target":34962
		},
		{
			"buffer":0,
			"byteLength":948,
			"byteOffset":18176,
			"target":34963
		},
		{
			"buffer":0,
			"byteLength":16128,
			"byteOffset":19124,
			"target":34962
		},
		{
			"buffer":0,
			"byteLength":16128,
			"byteOffset":35252,
			"target":34962
		},
		{
			"buffer":0,
			"byteLength":10752,
			"byteOffset":51380,
			"target":34962
		},
		{
			"buffer":0,
			"byteLength":4980,
			"byteOffset":62132,
			"target":34963
		},
		{
			"buffer":0,
			"byteLength":768,
			"byteOffset":67112,
			"target":34962
		},
		{
			"buffer":0,
			"byteLength":768,
			"byteOffset":67880,
			"target":34962
		},
		{
			"buffer":0,
			"byteLength":512,
			"byteOffset":68648,
			"target":34962
		},
		{
			"buffer":0,
			"byteLength":372,
			"byteOffset":69160,
			"target":34963
		},
		{
			"buffer":0,
			"byteLength":316224,
			"byteOffset":69532,
			"target":34962
		},
		{
			"buffer":0,
			"byteLength":316224,
			"byteOffset":385756,
			"target":34962
		},
		{
			"buffer":0,
			"byteLength":210816,
			"byteOffset":701980,
			"target":34962
		},
		{
			"buffer":0,
			"byteLength":289728,
			"byteOffset":912796,
			"target":34963
		}
	],
	"buffers":[
		{
			"byteLength":1202524,
			"uri":"data:application/octet-stream;base64,"
		}
	]
}
