{
	"asset":{
		"generator":"Khronos glTF Blender I/O v5.1.18",
		"version":"2.0"
	},
	"scene":0,
	"scenes":[
		{
			"name":"Scene",
			"nodes":[
				2
			]
		}
	],
	"nodes":[
		{
			"name":"Bone"
		},
		{
			"mesh":0,
			"name":"Knife",
			"skin":0
		},
		{
			"children":[
				1,
				0
			],
			"name":"KnifeArma"
		}
	],
	"animations":[
		{
			"channels":[
				{
					"sampler":0,
					"target":{
						"node":0,
						"path":"translation"
					}
				},
				{
					"sampler":1,
					"target":{
						"node":0,
						"path":"rotation"
					}
				},
				{
					"sampler":2,
					"target":{
						"node":0,
						"path":"scale"
					}
				}
			],
			"name":"Idle",
			"samplers":[
				{
					"input":7,
					"interpolation":"STEP",
					"output":8
				},
				{
					"input":7,
					"interpolation":"STEP",
					"output":9
				},
				{
					"input":7,
					"interpolation":"STEP",
					"output":10
				}
			]
		},
		{
			"channels":[
				{
					"sampler":0,
					"target":{
						"node":0,
						"path":"translation"
					}
				},
				{
					"sampler":1,
					"target":{
						"node":0,
						"path":"rotation"
					}
				},
				{
					"sampler":2,
					"target":{
						"node":0,
						"path":"scale"
					}
				}
			],
			"name":"Attacking",
			"samplers":[
				{
					"input":11,
					"interpolation":"LINEAR",
					"output":12
				},
				{
					"input":11,
					"interpolation":"LINEAR",
					"output":13
				},
				{
					"input":14,
					"interpolation":"STEP",
					"output":10
				}
			]
		}
	],
	"materials":[
		{
			"doubleSided":true,
			"name":"BaseTexture",
			"pbrMetallicRoughness":{
				"baseColorTexture":{
					"index":0
				},
				"metallicFactor":0,
				"roughnessFactor":0.5
			}
		}
	],
	"meshes":[
		{
			"name":"Knife",
			"primitives":[
				{
					"attributes":{
						"POSITION":0,
						"NORMAL":1,
						"TEXCOORD_0":2,
						"JOINTS_0":3,
						"WEIGHTS_0":4
					},
					"indices":5,
					"material":0
				}
			]
		}
	],
	"textures":[
		{
			"sampler":0,
			"source":0
		}
	],
	"images":[
		{
			"mimeType":"image/png",
			"name":"Kukri_Baked",
			"uri":"Kukri_Baked.png"
		}
	],
	"skins":[
		{
			"inverseBindMatrices":6,
			"joints":[
				0
			],
			"name":"KnifeArma"
		}
	],
	"accessors":[
		{
			"bufferView":0,
			"componentType":5126,
			"count":11329,
			"max":[
				0.4530351161956787,
				5.808359622955322,
				1.0768824815750122
			],
			"min":[
				-0.4530352056026459,
				-1.404937744140625,
				-0.6605079174041748
			],
			"type":"VEC3"
		},
		{
			"bufferView":1,
			"componentType":5126,
			"count":11329,
			"type":"VEC3"
		},
		{
			"bufferView":2,
			"componentType":5126,
			"count":11329,
			"type":"VEC2"
		},
		{
			"bufferView":3,
			"componentType":5121,
			"count":11329,
			"type":"VEC4"
		},
		{
			"bufferView":4,
			"componentType":5126,
			"count":11329,
			"type":"VEC4"
		},
		{
			"bufferView":5,
			"componentType":5123,
			"count":20256,
			"type":"SCALAR"
		},
		{
			"bufferView":6,
			"componentType":5126,
			"count":1,
			"type":"MAT4"
		},
		{
			"bufferView":7,
			"componentType":5126,
			"count":2,
			"max":[
				0.03333333333333333
			],
			"min":[
				0
			],
			"type":"SCALAR"
		},
		{
			"bufferView":8,
			"componentType":5126,
			"count":2,
			"type":"VEC3"
		},
		{
			"bufferView":9,
			"componentType":5126,
			"count":2,
			"type":"VEC4"
		},
		{
			"bufferView":10,
			"componentType":5126,
			"count":2,
			"type":"VEC3"
		},
		{
			"bufferView":11,
			"componentType":5126,
			"count":13,
			"max":[
				0.4
			],
			"min":[
				0
			],
			"type":"SCALAR"
		},
		{
			"bufferView":12,
			"componentType":5126,
			"count":13,
			"type":"VEC3"
		},
		{
			"bufferView":13,
			"componentType":5126,
			"count":13,
			"type":"VEC4"
		},
		{
			"bufferView":14,
			"componentType":5126,
			"count":2,
			"max":[
				0.4
			],
			"min":[
				0
			],
			"type":"SCALAR"
		}
	],
	"bufferViews":[
		{
			"buffer":0,
			"byteLength":135948,
			"byteOffset":0,
			"target":34962
		},
		{
			"buffer":0,
			"byteLength":135948,
			"byteOffset":135948,
			"target":34962
		},
		{
			"buffer":0,
			"byteLength":90632,
			"byteOffset":271896,
			"target":34962
		},
		{
			"buffer":0,
			"byteLength":45316,
			"byteOffset":362528,
			"target":34962
		},
		{
			"buffer":0,
			"byteLength":181264,
			"byteOffset":407844,
			"target":34962
		},
		{
			"buffer":0,
			"byteLength":40512,
			"byteOffset":589108,
			"target":34963
		},
		{
			"buffer":0,
			"byteLength":64,
			"byteOffset":629620
		},
		{
			"buffer":0,
			"byteLength":8,
			"byteOffset":629684
		},
		{
			"buffer":0,
			"byteLength":24,
			"byteOffset":629692
		},
		{
			"buffer":0,
			"byteLength":32,
			"byteOffset":629716
		},
		{
			"buffer":0,
			"byteLength":24,
			"byteOffset":629748
		},
		{
			"buffer":0,
			"byteLength":52,
			"byteOffset":629772
		},
		{
			"buffer":0,
			"byteLength":156,
			"byteOffset":629824
		},
		{
			"buffer":0,
			"byteLength":208,
			"byteOffset":629980
		},
		{
			"buffer":0,
			"byteLength":8,
			"byteOffset":630188
		}
	],
	"samplers":[
		{
			"magFilter":9729,
			"minFilter":9987
		}
	],
	"buffers":[
		{
			"byteLength":630196,
			"uri":"KukriKnife_Anim.bin"
		}
	]
}
